<svg xmlns="http://www.w3.org/2000/svg"  viewBox="0 0 48 48" width="48px" height="48px"><path fill="#373837" d="M35.136,31.575c-0.274,0.411-0.511,0.851-0.854,1.207c-0.305,0.316-0.683,0.552-1.06,0.777	c-1.504,0.896-3.044,1.703-4.615,2.475c0.063,0.04,0.125,0.079,0.188,0.119c-0.154,0.215-0.499,0.258-0.701,0.088	c-0.052-0.043-0.096-0.099-0.157-0.126c-0.217-0.097-0.4,0.2-0.425,0.437s-0.062,0.543-0.294,0.597	c-0.181,0.042-0.351-0.126-0.402-0.304c-0.051-0.178-0.025-0.369-0.043-0.553c-0.028-0.291-0.17-0.569-0.39-0.761	c-0.041-0.036-0.088-0.071-0.143-0.076c-0.137-0.014-0.219,0.146-0.26,0.278c-0.199,0.633-0.397,1.267-0.596,1.9	c-0.031,0.098-0.068,0.205-0.155,0.26c-0.161,0.102-0.366-0.033-0.496-0.172c-0.13-0.14-0.287-0.307-0.474-0.271	c-0.046,0.362-0.092,0.725-0.137,1.087c-0.586-0.398-0.372-1.472-0.992-1.816c-0.174,0.342-0.46,0.742-0.836,0.662	c-0.276-0.059-0.428-0.361-0.478-0.639s-0.042-0.575-0.174-0.825c-0.132-0.25-0.487-0.415-0.7-0.229	c-0.169,0.147-0.149,0.408-0.204,0.625c-0.055,0.217-0.337,0.422-0.48,0.25c-0.038-0.046-0.052-0.107-0.061-0.166	c-0.034-0.213-0.03-0.436-0.113-0.635c-0.083-0.199-0.296-0.369-0.503-0.309c-0.203,0.059-0.306,0.306-0.509,0.366	c-0.153,0.045-0.313-0.03-0.454-0.104c-1.872-0.975-3.679-2.074-5.406-3.288c-0.182-0.128-0.365-0.26-0.496-0.439	c-0.154-0.211-0.221-0.471-0.318-0.713c-0.253-0.63-0.854-1.175-1.452-1.496c0.005,0.062,0.118,0.029,0.114-0.032	c-0.004-0.062-0.068-0.1-0.125-0.123c-0.199-0.083-0.444-0.154-0.512-0.359c-0.058-0.175,0.046-0.358,0.147-0.512	c0.269-0.415,0.538-0.83,0.807-1.245c0.04-0.061,0.081-0.126,0.087-0.198c0.021-0.224-0.265-0.337-0.489-0.349	c-0.224-0.013-0.504-0.034-0.586-0.244c0.322-0.192,0.633-0.403,0.93-0.632c0.075-0.058,0.157-0.135,0.143-0.228	c-0.007-0.049-0.041-0.09-0.076-0.125c-0.22-0.217-0.538-0.294-0.808-0.444c-0.27-0.151-0.513-0.458-0.402-0.747	c0.053-0.139,0.177-0.237,0.269-0.355c0.092-0.118,0.149-0.293,0.058-0.411c-0.112-0.145-0.383-0.117-0.454-0.286	c0.282-0.283,0.43-0.694,0.393-1.092c-0.221,0.001-0.375-0.261-0.328-0.477s0.233-0.377,0.431-0.476s0.417-0.151,0.615-0.249	c0.064-0.031,0.129-0.07,0.167-0.13c0.141-0.22-0.161-0.465-0.418-0.512c-0.257-0.047-0.586-0.085-0.66-0.336	c-0.081-0.274,0.251-0.501,0.536-0.512c0.286-0.011,0.582,0.085,0.851-0.009c-0.45-0.544-0.9-1.089-1.349-1.633	c-0.061-0.074-0.125-0.156-0.123-0.252c0.002-0.086,0.058-0.16,0.111-0.228c0.928-1.174,1.856-2.347,2.784-3.521	c0.136-0.172,0.278-0.349,0.474-0.449c0.16-0.081,0.341-0.104,0.516-0.145c0.486-0.116,0.933-0.394,1.251-0.78	c0.07-0.084,0.141-0.179,0.247-0.207c0.189-0.051,0.362,0.136,0.557,0.154c0.227,0.021,0.406-0.181,0.542-0.364	c0.377-0.503,0.769-1.009,1.146-1.512c0.494,0.464,0.989,0.927,1.483,1.391c0.156,0.146,0.393,0.299,0.562,0.168	c0.082-0.064,0.11-0.174,0.132-0.276c0.089-0.4,0.178-0.8,0.267-1.199c0.151,0.337,0.302,0.674,0.454,1.011	c0.094,0.21,0.268,0.46,0.489,0.398c0.139-0.039,0.212-0.187,0.269-0.319c0.139-0.323,0.277-0.645,0.416-0.968	c0.213-0.023,0.434,0.043,0.599,0.179c0.071,0.059,0.136,0.131,0.222,0.163c0.211,0.077,0.418-0.117,0.545-0.302	c0.127-0.185,0.277-0.405,0.502-0.406c0.029,0.163,0.059,0.331,0.151,0.469s0.261,0.238,0.422,0.197	c0.2-0.051,0.304-0.289,0.5-0.354c0.291-0.095,0.539,0.235,0.629,0.527c0.089,0.292,0.17,0.648,0.457,0.754	c0.047,0.017,0.101,0.026,0.148,0.007c0.047-0.019,0.08-0.062,0.11-0.103c0.229-0.312,0.458-0.625,0.687-0.937	c0.124,0.382,0.247,0.765,0.371,1.147c0.024,0.076,0.058,0.161,0.133,0.187c0.074,0.025,0.153-0.021,0.217-0.065	c0.658-0.454,1.262-0.987,1.795-1.584c0.387,0.481,0.717,0.921,1.105,1.402c0.075,0.093,0.153,0.189,0.258,0.246	c0.382,0.208,0.911-0.179,1.271,0.065c0.125,0.084,0.195,0.226,0.284,0.347c0.183,0.25,0.467,0.424,0.773,0.476	c0.186,0.031,0.383,0.02,0.555,0.095c0.213,0.094,0.351,0.303,0.456,0.511c0.252,0.5,0.392,1.066,0.746,1.5	c0.402,0.494,1.021,0.746,1.545,1.108c0.524,0.361,0.999,0.958,0.858,1.579c-0.092,0.403-0.417,0.701-0.698,1.004	c-0.137,0.147-0.275,0.333-0.232,0.529c0.107,0.491,1.06,0.28,1.203,0.761c0.094,0.318-0.273,0.564-0.575,0.699	c-0.302,0.135-0.659,0.41-0.534,0.717c0.034,0.083,0.099,0.148,0.167,0.207c0.332,0.289,0.751,0.481,1.03,0.821	c0.28,0.34,0.345,0.929-0.025,1.168c-0.1,0.065-0.218,0.094-0.324,0.148c-0.184,0.093-0.333,0.268-0.361,0.472	c-0.028,0.204,0.084,0.429,0.278,0.5c0.165,0.061,0.401,0.039,0.462,0.205c0.053,0.146-0.097,0.281-0.231,0.358	c-0.426,0.243-0.895,0.41-1.379,0.49c-0.11,0.018-0.241,0.049-0.276,0.155c-0.037,0.113,0.067,0.219,0.161,0.293	c0.4,0.317,0.8,0.634,1.2,0.952c0.071,0.056,0.146,0.119,0.164,0.207c0.058,0.274-0.392,0.321-0.579,0.53	c-0.135,0.15-0.112,0.393-0.004,0.563c0.108,0.17,0.282,0.285,0.451,0.397c0.053,0.035,0.112,0.08,0.116,0.144	c0.004,0.064-0.098,0.114-0.124,0.055C36.319,30.086,35.661,30.789,35.136,31.575z M31.721,42.123	c0.299,0.171,0.598,0.343,0.898,0.514c0.048,0.027,0.108,0.055,0.156,0.027c0.035-0.02,0.049-0.063,0.06-0.102	c0.104-0.368,0.208-0.736,0.313-1.104c0.461-0.118,0.932,0.326,1.391,0.2c0.403-0.111,0.564-0.585,0.663-0.991	c0.056-0.232,0.113-0.464,0.169-0.697c0.032-0.131,0.066-0.267,0.151-0.371c0.189-0.231,0.552-0.219,0.83-0.109	c0.278,0.11,0.527,0.296,0.82,0.356c0.122,0.025,0.262,0.022,0.353-0.062c0.169-0.157,0.046-0.431-0.04-0.646	c-0.222-0.557-0.091-1.221,0.27-1.701c0.36-0.48,0.924-0.783,1.512-0.899c0.444-0.088,0.902-0.077,1.347-0.162	c0.071-0.013,0.145-0.031,0.2-0.077c0.073-0.06,0.101-0.159,0.117-0.252c0.07-0.419-0.046-0.866-0.312-1.197	c-0.114-0.142-0.263-0.286-0.257-0.469c0.008-0.248,0.287-0.385,0.422-0.593c0.173-0.267,0.09-0.615,0.054-0.931	c-0.117-1.02,0.574-0.725,1.188-1.004c0.237-0.107,0.428-0.365,0.369-0.619c-0.043-0.184-0.198-0.316-0.311-0.467	c-0.113-0.151-0.181-0.381-0.049-0.517c0.074-0.077,0.189-0.096,0.295-0.112c0.189-0.027,0.378-0.055,0.567-0.082	c0.06-0.009,0.124-0.019,0.171-0.059c0.055-0.047,0.073-0.127,0.068-0.2c-0.034-0.544-0.938-0.614-1.089-1.138	c0.178-0.164,0.438-0.19,0.675-0.242c0.237-0.052,0.497-0.171,0.559-0.405c0.123-0.468-0.628-0.76-0.639-1.245	c0.242,0.151,0.548,0.193,0.822,0.115c0.062-0.164-0.103-0.323-0.259-0.402s-0.345-0.159-0.385-0.33	c-0.05-0.215,0.174-0.388,0.375-0.48c0.442-0.201,1.007-0.423,1.037-0.907c0.02-0.331-0.247-0.612-0.533-0.78	c-0.041-0.024-0.087-0.053-0.091-0.1c-0.006-0.054,0.046-0.094,0.087-0.13c0.143-0.128,0.188-0.353,0.106-0.526	c-0.177-0.05-0.353-0.101-0.53-0.151c0.081-0.222,0.348-0.295,0.567-0.385c0.218-0.09,0.447-0.318,0.339-0.528	c-0.082-0.16-0.301-0.181-0.478-0.151c-0.177,0.029-0.366,0.086-0.528,0.008c-0.229-0.11-0.265-0.445-0.138-0.665	c0.127-0.22,0.362-0.352,0.585-0.474c0.207-0.113,0.414-0.226,0.622-0.338c0.059-0.032,0.122-0.068,0.151-0.128	c0.03-0.061,0.02-0.135,0.001-0.2c-0.11-0.384-0.455-0.646-0.674-0.98c-0.219-0.334-0.245-0.887,0.124-1.038	c0.163-0.066,0.347-0.027,0.523-0.041c0.175-0.014,0.376-0.127,0.367-0.303c-0.006-0.112-0.094-0.199-0.177-0.274	c-0.163-0.148-0.326-0.295-0.488-0.443c-0.281-0.255-0.589-0.63-0.417-0.969c0.163-0.322,0.668-0.365,0.798-0.701	c-0.299-0.295-0.54-0.69-0.817-1.006c0.184-0.261,0.372-0.531,0.44-0.843s-0.013-0.679-0.278-0.857	c-0.154-0.103-0.374-0.157-0.425-0.336c-0.075-0.267,0.316-0.474,0.295-0.75c-0.013-0.166-0.166-0.278-0.288-0.39	c-0.122-0.112-0.229-0.3-0.133-0.435c0.044-0.062,0.119-0.093,0.18-0.138c0.285-0.208,0.217-0.678-0.025-0.935	c-0.242-0.257-0.593-0.373-0.906-0.536c-0.064-0.034-0.131-0.072-0.167-0.135c-0.082-0.139,0.031-0.327,0.183-0.383	c0.151-0.056,0.32-0.02,0.477,0.016c0.019-0.297-0.24-0.529-0.471-0.717c-0.775-0.631-1.495-1.329-2.151-2.083	c-0.146-0.168-0.295-0.349-0.337-0.568c-0.023-0.117-0.014-0.238-0.045-0.353c-0.079-0.286-0.386-0.45-0.679-0.5	c-0.293-0.05-0.597-0.022-0.885-0.091c-0.595-0.142-1.057-0.676-1.665-0.739c-0.302-0.031-0.604,0.06-0.908,0.06	c-0.304,0-0.651-0.135-0.732-0.428c-0.076-0.274,0.097-0.621-0.103-0.824c-0.16-0.162-0.443-0.087-0.617,0.059	c-0.175,0.146-0.301,0.35-0.496,0.466s-0.511,0.086-0.577-0.132c-0.039-0.129,0.025-0.273-0.02-0.4	c-0.074-0.21-0.364-0.219-0.585-0.19c-1.828,0.247-3.656,0.493-5.484,0.74c-0.327,0.044-0.661,0.133-0.988,0.177	c-0.113-0.306-0.466-0.478-0.791-0.453c-0.325,0.025-0.619,0.212-0.848,0.445c-0.244,0.248-0.544,0.585-0.866,0.452	c-0.222-0.092-0.296-0.36-0.391-0.581c-0.095-0.221-0.321-0.451-0.541-0.352c-0.233,0.105-0.225,0.49-0.461,0.59	c-0.185,0.078-0.38-0.074-0.529-0.21c-0.343-0.313-0.723-0.601-1.164-0.745c-0.441-0.144-0.955-0.127-1.337,0.137	c-0.28,0.193-0.546,0.525-0.877,0.444c-0.405-0.099-0.434-0.71-0.787-0.932c-0.069-0.043-0.157-0.07-0.232-0.039	c-0.059,0.024-0.1,0.079-0.137,0.131c-0.179,0.25-0.358,0.512-0.619,0.674c-0.261,0.162-0.632,0.194-0.858-0.014	c-0.156-0.143-0.265-0.396-0.476-0.383c-0.189,0.012-0.279,0.234-0.326,0.418c-0.43,0.209-1.026-0.262-1.486-0.128	c-0.139,0.04-0.257,0.128-0.38,0.204c-0.326,0.202-0.693,0.326-1.057,0.449c-0.681,0.23-1.363,0.46-2.044,0.69	c-0.16,0.054-0.323,0.11-0.453,0.218C9.45,4.339,9.365,4.488,9.24,4.599C8.962,4.845,8.552,4.85,8.203,4.978	C6.907,5.452,6.819,7.363,5.696,8.164C5.423,8.359,5.049,8.57,5.099,8.902c0.018,0.122,0.096,0.226,0.13,0.344	c0.074,0.257-0.067,0.521-0.188,0.76c-0.403,0.796-0.626,1.683-0.648,2.576c-0.01,0.411,0.011,0.859-0.234,1.19	c-0.126,0.17-0.311,0.289-0.45,0.449s-0.23,0.399-0.125,0.583c0.129,0.225,0.48,0.251,0.595,0.484	c0.129,0.258-0.118,0.533-0.296,0.76c-0.482,0.615-0.523,1.54-0.098,2.196c0.179,0.276,0.44,0.532,0.45,0.86	c0.017,0.542-0.664,0.997-0.478,1.507c0.126,0.347,0.617,0.52,0.615,0.889C4.371,21.721,4.18,21.893,4.097,22.1	c-0.083,0.207,0.084,0.535,0.281,0.429c-0.218,0.225-0.437,0.45-0.655,0.675c0.396,0.142,0.791,0.284,1.187,0.426	c-0.11,0.28-0.404,0.43-0.652,0.6c-0.248,0.17-0.487,0.452-0.399,0.739c0.031,0.102,0.101,0.188,0.169,0.27	c0.224,0.272,0.448,0.545,0.672,0.817c-0.066,0.058,0.035,0.122,0.101,0.18c0.066,0.058,0.154,0.091,0.208,0.16	c0.085,0.107,0.06,0.269-0.016,0.382c-0.076,0.113-0.193,0.191-0.3,0.275c-0.217,0.169-0.407,0.372-0.562,0.599	c-0.081,0.12-0.149,0.292-0.05,0.398c0.049,0.052,0.123,0.069,0.193,0.083c0.604,0.123,1.207,0.245,1.811,0.368	c-0.38,0.387-0.76,0.773-1.14,1.16c-0.132,0.134-0.274,0.3-0.24,0.485c0.455,0.167,0.943,0.241,1.427,0.214	c-0.233,0.407-0.402,0.851-0.499,1.31c0.285,0.079,0.57,0.158,0.855,0.236c0.1,0.028,0.209,0.061,0.268,0.147	c0.053,0.077,0.053,0.177,0.05,0.271c-0.01,0.401-0.02,0.803-0.03,1.204c-0.004,0.154-0.003,0.322,0.091,0.445	s0.322,0.143,0.386,0.003c-0.264,0.866-0.509,1.738-0.737,2.614c-0.01,0.038-0.019,0.082,0.002,0.115	c0.024,0.039,0.077,0.047,0.123,0.048c0.368,0.005,0.705-0.187,1.045-0.326c0.34-0.14,0.752-0.223,1.059-0.02	c0.346,0.229,0.4,0.705,0.595,1.072c0.204,0.382,0.569,0.648,0.922,0.899c-0.087,0.028-0.173,0.056-0.26,0.085	c0.014,0.432,0.162,0.862,0.325,1.263c0.027,0.067,0.062,0.138,0.128,0.166c0.085,0.035,0.179-0.019,0.256-0.07	c0.188-0.127,0.376-0.254,0.564-0.38c-0.005,0.33,0.202,0.654,0.503,0.787c0.096,0.042,0.204,0.07,0.274,0.148	c0.051,0.057,0.074,0.133,0.095,0.207c0.109,0.376,0.218,0.751,0.328,1.127c0.052,0.178,0.112,0.368,0.26,0.48	c0.334,0.251,0.831-0.066,1.223,0.08c0.407,0.151,0.48,0.687,0.731,1.042c0.035,0.05,0.078,0.099,0.136,0.121	c0.12,0.045,0.245-0.045,0.342-0.13c0.187-0.163,0.385-0.33,0.627-0.387c0.241-0.057,0.538,0.037,0.626,0.269	c0.062,0.163,0.008,0.345,0.006,0.52c-0.002,0.175,0.093,0.386,0.268,0.387c0.131,0.001,0.227-0.117,0.303-0.224	c0.275-0.387,0.551-0.773,0.826-1.16c0.032,0.887,0.264,1.738,0.656,2.534c0.052,0.105,0.141,0.226,0.255,0.199	c0.075-0.018,0.119-0.094,0.156-0.161c0.269-0.488,0.663-0.907,1.135-1.204c0.045-0.028,0.094-0.056,0.147-0.055	c0.074,0.002,0.133,0.06,0.174,0.121c0.146,0.221,0.139,0.505,0.2,0.763c0.061,0.258,0.264,0.533,0.526,0.494	c0.15-0.022,0.312-0.143,0.435-0.054c0.135,0.097,0.051,0.328,0.149,0.461c0.097,0.13,0.318,0.084,0.419-0.043	c0.101-0.127,0.118-0.299,0.146-0.458c0.066-0.386,0.212-0.757,0.426-1.085c0.029-0.045,0.063-0.091,0.114-0.107	c0.089-0.028,0.176,0.05,0.222,0.131c0.227,0.391,0.033,0.92,0.242,1.321c0.072,0.139,0.231,0.263,0.376,0.205	c0.122-0.048,0.167-0.193,0.208-0.318c0.15-0.461,0.435-0.878,0.811-1.184c0.314,0.347,0.401,0.837,0.601,1.26	s0.637,0.825,1.085,0.69c0.447-0.135,0.582-0.683,0.801-1.096c0.3-0.564,0.882-1.025,0.888-1.664	c0.498,0.421,0.583,1.27,1.188,1.512c0.255-0.621,0.255-1.314,0.251-1.986c0.451,0.513,0.903,1.026,1.354,1.539	c0.126,0.143,0.273,0.296,0.463,0.305c0.187,0.008,0.354-0.137,0.431-0.308c0.077-0.171,0.082-0.365,0.087-0.552	c0.014-0.589,0.028-1.178,0.041-1.767c-0.023,0.084-0.047,0.168-0.07,0.252"/><path fill="#f3ad20" d="M35.136,31.575c-0.274,0.411-0.511,0.851-0.854,1.207c-0.305,0.316-0.683,0.552-1.06,0.777	c-1.504,0.896-3.044,1.703-4.615,2.475c0.063,0.04,0.125,0.079,0.188,0.119c-0.154,0.215-0.499,0.258-0.701,0.088	c-0.052-0.043-0.096-0.099-0.157-0.126c-0.217-0.097-0.4,0.2-0.425,0.437s-0.062,0.543-0.294,0.597	c-0.181,0.042-0.351-0.126-0.402-0.304c-0.051-0.178-0.025-0.369-0.043-0.553c-0.028-0.291-0.17-0.569-0.39-0.761	c-0.041-0.036-0.088-0.071-0.143-0.076c-0.137-0.014-0.219,0.146-0.26,0.278c-0.199,0.633-0.397,1.267-0.596,1.9	c-0.031,0.098-0.068,0.205-0.155,0.26c-0.161,0.102-0.366-0.033-0.496-0.172c-0.13-0.14-0.287-0.307-0.474-0.271	c-0.046,0.362-0.092,0.725-0.137,1.087c-0.586-0.398-0.372-1.472-0.992-1.816c-0.174,0.342-0.46,0.742-0.836,0.662	c-0.276-0.059-0.428-0.361-0.478-0.639s-0.042-0.575-0.174-0.825c-0.132-0.25-0.487-0.415-0.7-0.229	c-0.169,0.147-0.149,0.408-0.204,0.625c-0.055,0.217-0.337,0.422-0.48,0.25c-0.038-0.046-0.052-0.107-0.061-0.166	c-0.034-0.213-0.03-0.436-0.113-0.635c-0.083-0.199-0.296-0.369-0.503-0.309c-0.203,0.059-0.306,0.306-0.509,0.366	c-0.153,0.045-0.313-0.03-0.454-0.104c-1.872-0.975-3.679-2.074-5.406-3.288c-0.182-0.128-0.365-0.26-0.496-0.439	c-0.154-0.211-0.221-0.471-0.318-0.713c-0.253-0.63-0.854-1.175-1.452-1.496c0.005,0.062,0.118,0.029,0.114-0.032	c-0.004-0.062-0.068-0.1-0.125-0.123c-0.199-0.083-0.444-0.154-0.512-0.359c-0.058-0.175,0.046-0.358,0.147-0.512	c0.269-0.415,0.538-0.83,0.807-1.245c0.04-0.061,0.081-0.126,0.087-0.198c0.021-0.224-0.265-0.337-0.489-0.349	c-0.224-0.013-0.504-0.034-0.586-0.244c0.322-0.192,0.633-0.403,0.93-0.632c0.075-0.058,0.157-0.135,0.143-0.228	c-0.007-0.049-0.041-0.09-0.076-0.125c-0.22-0.217-0.538-0.294-0.808-0.444c-0.27-0.151-0.513-0.458-0.402-0.747	c0.053-0.139,0.177-0.237,0.269-0.355c0.092-0.118,0.149-0.293,0.058-0.411c-0.112-0.145-0.383-0.117-0.454-0.286	c0.282-0.283,0.43-0.694,0.393-1.092c-0.221,0.001-0.375-0.261-0.328-0.477s0.233-0.377,0.431-0.476s0.417-0.151,0.615-0.249	c0.064-0.031,0.129-0.07,0.167-0.13c0.141-0.22-0.161-0.465-0.418-0.512c-0.257-0.047-0.586-0.085-0.66-0.336	c-0.081-0.274,0.251-0.501,0.536-0.512c0.286-0.011,0.582,0.085,0.851-0.009c-0.45-0.544-0.9-1.089-1.349-1.633	c-0.061-0.074-0.125-0.156-0.123-0.252c0.002-0.086,0.058-0.16,0.111-0.228c0.928-1.174,1.856-2.347,2.784-3.521	c0.136-0.172,0.278-0.349,0.474-0.449c0.16-0.081,0.341-0.104,0.516-0.145c0.486-0.116,0.933-0.394,1.251-0.78	c0.07-0.084,0.141-0.179,0.247-0.207c0.189-0.051,0.362,0.136,0.557,0.154c0.227,0.021,0.406-0.181,0.542-0.364	c0.377-0.503,0.769-1.009,1.146-1.512c0.494,0.464,0.989,0.927,1.483,1.391c0.156,0.146,0.393,0.299,0.562,0.168	c0.082-0.064,0.11-0.174,0.132-0.276c0.089-0.4,0.178-0.8,0.267-1.199c0.151,0.337,0.302,0.674,0.454,1.011	c0.094,0.21,0.268,0.46,0.489,0.398c0.139-0.039,0.212-0.187,0.269-0.319c0.139-0.323,0.277-0.645,0.416-0.968	c0.213-0.023,0.434,0.043,0.599,0.179c0.071,0.059,0.136,0.131,0.222,0.163c0.211,0.077,0.418-0.117,0.545-0.302	c0.127-0.185,0.277-0.405,0.502-0.406c0.029,0.163,0.059,0.331,0.151,0.469s0.261,0.238,0.422,0.197	c0.2-0.051,0.304-0.289,0.5-0.354c0.291-0.095,0.539,0.235,0.629,0.527c0.089,0.292,0.17,0.648,0.457,0.754	c0.047,0.017,0.101,0.026,0.148,0.007c0.047-0.019,0.08-0.062,0.11-0.103c0.229-0.312,0.458-0.625,0.687-0.937	c0.124,0.382,0.247,0.765,0.371,1.147c0.024,0.076,0.058,0.161,0.133,0.187c0.074,0.025,0.153-0.021,0.217-0.065	c0.658-0.454,1.262-0.987,1.795-1.584c0.387,0.481,0.717,0.921,1.105,1.402c0.075,0.093,0.153,0.189,0.258,0.246	c0.382,0.208,0.911-0.179,1.271,0.065c0.125,0.084,0.195,0.226,0.284,0.347c0.183,0.25,0.467,0.424,0.773,0.476	c0.186,0.031,0.383,0.02,0.555,0.095c0.213,0.094,0.351,0.303,0.456,0.511c0.252,0.5,0.392,1.066,0.746,1.5	c0.402,0.494,1.021,0.746,1.545,1.108c0.524,0.361,0.999,0.958,0.858,1.579c-0.092,0.403-0.417,0.701-0.698,1.004	c-0.137,0.147-0.275,0.333-0.232,0.529c0.107,0.491,1.06,0.28,1.203,0.761c0.094,0.318-0.273,0.564-0.575,0.699	c-0.302,0.135-0.659,0.41-0.534,0.717c0.034,0.083,0.099,0.148,0.167,0.207c0.332,0.289,0.751,0.481,1.03,0.821	c0.28,0.34,0.345,0.929-0.025,1.168c-0.1,0.065-0.218,0.094-0.324,0.148c-0.184,0.093-0.333,0.268-0.361,0.472	c-0.028,0.204,0.084,0.429,0.278,0.5c0.165,0.061,0.401,0.039,0.462,0.205c0.053,0.146-0.097,0.281-0.231,0.358	c-0.426,0.243-0.895,0.41-1.379,0.49c-0.11,0.018-0.241,0.049-0.276,0.155c-0.037,0.113,0.067,0.219,0.161,0.293	c0.4,0.317,0.8,0.634,1.2,0.952c0.071,0.056,0.146,0.119,0.164,0.207c0.058,0.274-0.392,0.321-0.579,0.53	c-0.135,0.15-0.112,0.393-0.004,0.563c0.108,0.17,0.282,0.285,0.451,0.397c0.053,0.035,0.112,0.08,0.116,0.144	c0.004,0.064-0.098,0.114-0.124,0.055C36.319,30.086,35.661,30.789,35.136,31.575z"/><path fill="none" stroke="#010101" stroke-linecap="round" stroke-linejoin="round" stroke-miterlimit="10" d="M35.136,31.575	c-0.274,0.411-0.511,0.851-0.854,1.207c-0.305,0.316-0.683,0.552-1.06,0.777c-1.504,0.896-3.044,1.703-4.615,2.475	c0.063,0.04,0.125,0.079,0.188,0.119c-0.154,0.215-0.499,0.258-0.701,0.088c-0.052-0.043-0.096-0.099-0.157-0.126	c-0.217-0.097-0.4,0.2-0.425,0.437s-0.062,0.543-0.294,0.597c-0.181,0.042-0.351-0.126-0.402-0.304	c-0.051-0.178-0.025-0.369-0.043-0.553c-0.028-0.291-0.17-0.569-0.39-0.761c-0.041-0.036-0.088-0.071-0.143-0.076	c-0.137-0.014-0.219,0.146-0.26,0.278c-0.199,0.633-0.397,1.267-0.596,1.9c-0.031,0.098-0.068,0.205-0.155,0.26	c-0.161,0.102-0.366-0.033-0.496-0.172c-0.13-0.14-0.287-0.307-0.474-0.271c-0.046,0.362-0.092,0.725-0.137,1.087	c-0.586-0.398-0.372-1.472-0.992-1.816c-0.174,0.342-0.46,0.742-0.836,0.662c-0.276-0.059-0.428-0.361-0.478-0.639	s-0.042-0.575-0.174-0.825c-0.132-0.25-0.487-0.415-0.7-0.229c-0.169,0.147-0.149,0.408-0.204,0.625	c-0.055,0.217-0.337,0.422-0.48,0.25c-0.038-0.046-0.052-0.107-0.061-0.166c-0.034-0.213-0.03-0.436-0.113-0.635	c-0.083-0.199-0.296-0.369-0.503-0.309c-0.203,0.059-0.306,0.306-0.509,0.366c-0.153,0.045-0.313-0.03-0.454-0.104	c-1.872-0.975-3.679-2.074-5.406-3.288c-0.182-0.128-0.365-0.26-0.496-0.439c-0.154-0.211-0.221-0.471-0.318-0.713	c-0.253-0.63-0.854-1.175-1.452-1.496c0.005,0.062,0.118,0.029,0.114-0.032c-0.004-0.062-0.068-0.1-0.125-0.123	c-0.199-0.083-0.444-0.154-0.512-0.359c-0.058-0.175,0.046-0.358,0.147-0.512c0.269-0.415,0.538-0.83,0.807-1.245	c0.04-0.061,0.081-0.126,0.087-0.198c0.021-0.224-0.265-0.337-0.489-0.349c-0.224-0.013-0.504-0.034-0.586-0.244	c0.322-0.192,0.633-0.403,0.93-0.632c0.075-0.058,0.157-0.135,0.143-0.228c-0.007-0.049-0.041-0.09-0.076-0.125	c-0.22-0.217-0.538-0.294-0.808-0.444c-0.27-0.151-0.513-0.458-0.402-0.747c0.053-0.139,0.177-0.237,0.269-0.355	c0.092-0.118,0.149-0.293,0.058-0.411c-0.112-0.145-0.383-0.117-0.454-0.286c0.282-0.283,0.43-0.694,0.393-1.092	c-0.221,0.001-0.375-0.261-0.328-0.477s0.233-0.377,0.431-0.476s0.417-0.151,0.615-0.249c0.064-0.031,0.129-0.07,0.167-0.13	c0.141-0.22-0.161-0.465-0.418-0.512c-0.257-0.047-0.586-0.085-0.66-0.336c-0.081-0.274,0.251-0.501,0.536-0.512	c0.286-0.011,0.582,0.085,0.851-0.009c-0.45-0.544-0.9-1.089-1.349-1.633c-0.061-0.074-0.125-0.156-0.123-0.252	c0.002-0.086,0.058-0.16,0.111-0.228c0.928-1.174,1.856-2.347,2.784-3.521c0.136-0.172,0.278-0.349,0.474-0.449	c0.16-0.081,0.341-0.104,0.516-0.145c0.486-0.116,0.933-0.394,1.251-0.78c0.07-0.084,0.141-0.179,0.247-0.207	c0.189-0.051,0.362,0.136,0.557,0.154c0.227,0.021,0.406-0.181,0.542-0.364c0.377-0.503,0.769-1.009,1.146-1.512	c0.494,0.464,0.989,0.927,1.483,1.391c0.156,0.146,0.393,0.299,0.562,0.168c0.082-0.064,0.11-0.174,0.132-0.276	c0.089-0.4,0.178-0.8,0.267-1.199c0.151,0.337,0.302,0.674,0.454,1.011c0.094,0.21,0.268,0.46,0.489,0.398	c0.139-0.039,0.212-0.187,0.269-0.319c0.139-0.323,0.277-0.645,0.416-0.968c0.213-0.023,0.434,0.043,0.599,0.179	c0.071,0.059,0.136,0.131,0.222,0.163c0.211,0.077,0.418-0.117,0.545-0.302c0.127-0.185,0.277-0.405,0.502-0.406	c0.029,0.163,0.059,0.331,0.151,0.469s0.261,0.238,0.422,0.197c0.2-0.051,0.304-0.289,0.5-0.354	c0.291-0.095,0.539,0.235,0.629,0.527c0.089,0.292,0.17,0.648,0.457,0.754c0.047,0.017,0.101,0.026,0.148,0.007	c0.047-0.019,0.08-0.062,0.11-0.103c0.229-0.312,0.458-0.625,0.687-0.937c0.124,0.382,0.247,0.765,0.371,1.147	c0.024,0.076,0.058,0.161,0.133,0.187c0.074,0.025,0.153-0.021,0.217-0.065c0.658-0.454,1.262-0.987,1.795-1.584	c0.387,0.481,0.717,0.921,1.105,1.402c0.075,0.093,0.153,0.189,0.258,0.246c0.382,0.208,0.911-0.179,1.271,0.065	c0.125,0.084,0.195,0.226,0.284,0.347c0.183,0.25,0.467,0.424,0.773,0.476c0.186,0.031,0.383,0.02,0.555,0.095	c0.213,0.094,0.351,0.303,0.456,0.511c0.252,0.5,0.392,1.066,0.746,1.5c0.402,0.494,1.021,0.746,1.545,1.108	c0.524,0.361,0.999,0.958,0.858,1.579c-0.092,0.403-0.417,0.701-0.698,1.004c-0.137,0.147-0.275,0.333-0.232,0.529	c0.107,0.491,1.06,0.28,1.203,0.761c0.094,0.318-0.273,0.564-0.575,0.699c-0.302,0.135-0.659,0.41-0.534,0.717	c0.034,0.083,0.099,0.148,0.167,0.207c0.332,0.289,0.751,0.481,1.03,0.821c0.28,0.34,0.345,0.929-0.025,1.168	c-0.1,0.065-0.218,0.094-0.324,0.148c-0.184,0.093-0.333,0.268-0.361,0.472c-0.028,0.204,0.084,0.429,0.278,0.5	c0.165,0.061,0.401,0.039,0.462,0.205c0.053,0.146-0.097,0.281-0.231,0.358c-0.426,0.243-0.895,0.41-1.379,0.49	c-0.11,0.018-0.241,0.049-0.276,0.155c-0.037,0.113,0.067,0.219,0.161,0.293c0.4,0.317,0.8,0.634,1.2,0.952	c0.071,0.056,0.146,0.119,0.164,0.207c0.058,0.274-0.392,0.321-0.579,0.53c-0.135,0.15-0.112,0.393-0.004,0.563	c0.108,0.17,0.282,0.285,0.451,0.397c0.053,0.035,0.112,0.08,0.116,0.144c0.004,0.064-0.098,0.114-0.124,0.055	C36.319,30.086,35.661,30.789,35.136,31.575z M31.721,42.123c0.299,0.171,0.598,0.343,0.898,0.514	c0.048,0.027,0.108,0.055,0.156,0.027c0.035-0.02,0.049-0.063,0.06-0.102c0.104-0.368,0.208-0.736,0.313-1.104	c0.461-0.118,0.932,0.326,1.391,0.2c0.403-0.111,0.564-0.585,0.663-0.991c0.056-0.232,0.113-0.464,0.169-0.697	c0.032-0.131,0.066-0.267,0.151-0.371c0.189-0.231,0.552-0.219,0.83-0.109c0.278,0.11,0.527,0.296,0.82,0.356	c0.122,0.025,0.262,0.022,0.353-0.062c0.169-0.157,0.046-0.431-0.04-0.646c-0.222-0.557-0.091-1.221,0.27-1.701	c0.36-0.48,0.924-0.783,1.512-0.899c0.444-0.088,0.902-0.077,1.347-0.162c0.071-0.013,0.145-0.031,0.2-0.077	c0.073-0.06,0.101-0.159,0.117-0.252c0.07-0.419-0.046-0.866-0.312-1.197c-0.114-0.142-0.263-0.286-0.257-0.469	c0.008-0.248,0.287-0.385,0.422-0.593c0.173-0.267,0.09-0.615,0.054-0.931c-0.117-1.02,0.574-0.725,1.188-1.004	c0.237-0.107,0.428-0.365,0.369-0.619c-0.043-0.184-0.198-0.316-0.311-0.467c-0.113-0.151-0.181-0.381-0.049-0.517	c0.074-0.077,0.189-0.096,0.295-0.112c0.189-0.027,0.378-0.055,0.567-0.082c0.06-0.009,0.124-0.019,0.171-0.059	c0.055-0.047,0.073-0.127,0.068-0.2c-0.034-0.544-0.938-0.614-1.089-1.138c0.178-0.164,0.438-0.19,0.675-0.242	c0.237-0.052,0.497-0.171,0.559-0.405c0.123-0.468-0.628-0.76-0.639-1.245c0.242,0.151,0.548,0.193,0.822,0.115	c0.062-0.164-0.103-0.323-0.259-0.402s-0.345-0.159-0.385-0.33c-0.05-0.215,0.174-0.388,0.375-0.48	c0.442-0.201,1.007-0.423,1.037-0.907c0.02-0.331-0.247-0.612-0.533-0.78c-0.041-0.024-0.087-0.053-0.091-0.1	c-0.006-0.054,0.046-0.094,0.087-0.13c0.143-0.128,0.188-0.353,0.106-0.526c-0.177-0.05-0.353-0.101-0.53-0.151	c0.081-0.222,0.348-0.295,0.567-0.385c0.218-0.09,0.447-0.318,0.339-0.528c-0.082-0.16-0.301-0.181-0.478-0.151	c-0.177,0.029-0.366,0.086-0.528,0.008c-0.229-0.11-0.265-0.445-0.138-0.665c0.127-0.22,0.362-0.352,0.585-0.474	c0.207-0.113,0.414-0.226,0.622-0.338c0.059-0.032,0.122-0.068,0.151-0.128c0.03-0.061,0.02-0.135,0.001-0.2	c-0.11-0.384-0.455-0.646-0.674-0.98c-0.219-0.334-0.245-0.887,0.124-1.038c0.163-0.066,0.347-0.027,0.523-0.041	c0.175-0.014,0.376-0.127,0.367-0.303c-0.006-0.112-0.094-0.199-0.177-0.274c-0.163-0.148-0.326-0.295-0.488-0.443	c-0.281-0.255-0.589-0.63-0.417-0.969c0.163-0.322,0.668-0.365,0.798-0.701c-0.299-0.295-0.54-0.69-0.817-1.006	c0.184-0.261,0.372-0.531,0.44-0.843s-0.013-0.679-0.278-0.857c-0.154-0.103-0.374-0.157-0.425-0.336	c-0.075-0.267,0.316-0.474,0.295-0.75c-0.013-0.166-0.166-0.278-0.288-0.39c-0.122-0.112-0.229-0.3-0.133-0.435	c0.044-0.062,0.119-0.093,0.18-0.138c0.285-0.208,0.217-0.678-0.025-0.935c-0.242-0.257-0.593-0.373-0.906-0.536	c-0.064-0.034-0.131-0.072-0.167-0.135c-0.082-0.139,0.031-0.327,0.183-0.383c0.151-0.056,0.32-0.02,0.477,0.016	c0.019-0.297-0.24-0.529-0.471-0.717c-0.775-0.631-1.495-1.329-2.151-2.083c-0.146-0.168-0.295-0.349-0.337-0.568	c-0.023-0.117-0.014-0.238-0.045-0.353c-0.079-0.286-0.386-0.45-0.679-0.5c-0.293-0.05-0.597-0.022-0.885-0.091	c-0.595-0.142-1.057-0.676-1.665-0.739c-0.302-0.031-0.604,0.06-0.908,0.06c-0.304,0-0.651-0.135-0.732-0.428	c-0.076-0.274,0.097-0.621-0.103-0.824c-0.16-0.162-0.443-0.087-0.617,0.059c-0.175,0.146-0.301,0.35-0.496,0.466	s-0.511,0.086-0.577-0.132c-0.039-0.129,0.025-0.273-0.02-0.4c-0.074-0.21-0.364-0.219-0.585-0.19	c-1.828,0.247-3.656,0.493-5.484,0.74c-0.327,0.044-0.661,0.133-0.988,0.177c-0.113-0.306-0.466-0.478-0.791-0.453	c-0.325,0.025-0.619,0.212-0.848,0.445c-0.244,0.248-0.544,0.585-0.866,0.452c-0.222-0.092-0.296-0.36-0.391-0.581	c-0.095-0.221-0.321-0.451-0.541-0.352c-0.233,0.105-0.225,0.49-0.461,0.59c-0.185,0.078-0.38-0.074-0.529-0.21	c-0.343-0.313-0.723-0.601-1.164-0.745c-0.441-0.144-0.955-0.127-1.337,0.137c-0.28,0.193-0.546,0.525-0.877,0.444	c-0.405-0.099-0.434-0.71-0.787-0.932c-0.069-0.043-0.157-0.07-0.232-0.039c-0.059,0.024-0.1,0.079-0.137,0.131	c-0.179,0.25-0.358,0.512-0.619,0.674c-0.261,0.162-0.632,0.194-0.858-0.014c-0.156-0.143-0.265-0.396-0.476-0.383	c-0.189,0.012-0.279,0.234-0.326,0.418c-0.43,0.209-1.026-0.262-1.486-0.128c-0.139,0.04-0.257,0.128-0.38,0.204	c-0.326,0.202-0.693,0.326-1.057,0.449c-0.681,0.23-1.363,0.46-2.044,0.69c-0.16,0.054-0.323,0.11-0.453,0.218	C9.45,4.339,9.365,4.488,9.24,4.599C8.962,4.845,8.552,4.85,8.203,4.978C6.907,5.452,6.819,7.363,5.696,8.164	C5.423,8.359,5.049,8.57,5.099,8.902c0.018,0.122,0.096,0.226,0.13,0.344c0.074,0.257-0.067,0.521-0.188,0.76	c-0.403,0.796-0.626,1.683-0.648,2.576c-0.01,0.411,0.011,0.859-0.234,1.19c-0.126,0.17-0.311,0.289-0.45,0.449	s-0.23,0.399-0.125,0.583c0.129,0.225,0.48,0.251,0.595,0.484c0.129,0.258-0.118,0.533-0.296,0.76	c-0.482,0.615-0.523,1.54-0.098,2.196c0.179,0.276,0.44,0.532,0.45,0.86c0.017,0.542-0.664,0.997-0.478,1.507	c0.126,0.347,0.617,0.52,0.615,0.889C4.371,21.721,4.18,21.893,4.097,22.1c-0.083,0.207,0.084,0.535,0.281,0.429	c-0.218,0.225-0.437,0.45-0.655,0.675c0.396,0.142,0.791,0.284,1.187,0.426c-0.11,0.28-0.404,0.43-0.652,0.6	c-0.248,0.17-0.487,0.452-0.399,0.739c0.031,0.102,0.101,0.188,0.169,0.27c0.224,0.272,0.448,0.545,0.672,0.817	c-0.066,0.058,0.035,0.122,0.101,0.18c0.066,0.058,0.154,0.091,0.208,0.16c0.085,0.107,0.06,0.269-0.016,0.382	c-0.076,0.113-0.193,0.191-0.3,0.275c-0.217,0.169-0.407,0.372-0.562,0.599c-0.081,0.12-0.149,0.292-0.05,0.398	c0.049,0.052,0.123,0.069,0.193,0.083c0.604,0.123,1.207,0.245,1.811,0.368c-0.38,0.387-0.76,0.773-1.14,1.16	c-0.132,0.134-0.274,0.3-0.24,0.485c0.455,0.167,0.943,0.241,1.427,0.214c-0.233,0.407-0.402,0.851-0.499,1.31	c0.285,0.079,0.57,0.158,0.855,0.236c0.1,0.028,0.209,0.061,0.268,0.147c0.053,0.077,0.053,0.177,0.05,0.271	c-0.01,0.401-0.02,0.803-0.03,1.204c-0.004,0.154-0.003,0.322,0.091,0.445s0.322,0.143,0.386,0.003	c-0.264,0.866-0.509,1.738-0.737,2.614c-0.01,0.038-0.019,0.082,0.002,0.115c0.024,0.039,0.077,0.047,0.123,0.048	c0.368,0.005,0.705-0.187,1.045-0.326c0.34-0.14,0.752-0.223,1.059-0.02c0.346,0.229,0.4,0.705,0.595,1.072	c0.204,0.382,0.569,0.648,0.922,0.899c-0.087,0.028-0.173,0.056-0.26,0.085c0.014,0.432,0.162,0.862,0.325,1.263	c0.027,0.067,0.062,0.138,0.128,0.166c0.085,0.035,0.179-0.019,0.256-0.07c0.188-0.127,0.376-0.254,0.564-0.38	c-0.005,0.33,0.202,0.654,0.503,0.787c0.096,0.042,0.204,0.07,0.274,0.148c0.051,0.057,0.074,0.133,0.095,0.207	c0.109,0.376,0.218,0.751,0.328,1.127c0.052,0.178,0.112,0.368,0.26,0.48c0.334,0.251,0.831-0.066,1.223,0.08	c0.407,0.151,0.48,0.687,0.731,1.042c0.035,0.05,0.078,0.099,0.136,0.121c0.12,0.045,0.245-0.045,0.342-0.13	c0.187-0.163,0.385-0.33,0.627-0.387c0.241-0.057,0.538,0.037,0.626,0.269c0.062,0.163,0.008,0.345,0.006,0.52	c-0.002,0.175,0.093,0.386,0.268,0.387c0.131,0.001,0.227-0.117,0.303-0.224c0.275-0.387,0.551-0.773,0.826-1.16	c0.032,0.887,0.264,1.738,0.656,2.534c0.052,0.105,0.141,0.226,0.255,0.199c0.075-0.018,0.119-0.094,0.156-0.161	c0.269-0.488,0.663-0.907,1.135-1.204c0.045-0.028,0.094-0.056,0.147-0.055c0.074,0.002,0.133,0.06,0.174,0.121	c0.146,0.221,0.139,0.505,0.2,0.763c0.061,0.258,0.264,0.533,0.526,0.494c0.15-0.022,0.312-0.143,0.435-0.054	c0.135,0.097,0.051,0.328,0.149,0.461c0.097,0.13,0.318,0.084,0.419-0.043c0.101-0.127,0.118-0.299,0.146-0.458	c0.066-0.386,0.212-0.757,0.426-1.085c0.029-0.045,0.063-0.091,0.114-0.107c0.089-0.028,0.176,0.05,0.222,0.131	c0.227,0.391,0.033,0.92,0.242,1.321c0.072,0.139,0.231,0.263,0.376,0.205c0.122-0.048,0.167-0.193,0.208-0.318	c0.15-0.461,0.435-0.878,0.811-1.184c0.314,0.347,0.401,0.837,0.601,1.26s0.637,0.825,1.085,0.69	c0.447-0.135,0.582-0.683,0.801-1.096c0.3-0.564,0.882-1.025,0.888-1.664c0.498,0.421,0.583,1.27,1.188,1.512	c0.255-0.621,0.255-1.314,0.251-1.986c0.451,0.513,0.903,1.026,1.354,1.539c0.126,0.143,0.273,0.296,0.463,0.305	c0.187,0.008,0.354-0.137,0.431-0.308c0.077-0.171,0.082-0.365,0.087-0.552c0.014-0.589,0.028-1.178,0.041-1.767	c-0.023,0.084-0.047,0.168-0.07,0.252"/><path fill="#373837" d="M14.878,22.807c-0.013,0.091-0.021,0.2,0.05,0.259c0.046,0.038,0.11,0.041,0.17,0.043	c1.771,0.042,3.547-0.112,5.284-0.458c0.468-0.093,0.982-0.233,1.233-0.638c0.179-0.287,0.183-0.646,0.182-0.984	c-0.002-0.54-0.004-1.079-0.005-1.619c0-0.132-0.003-0.271-0.074-0.382c-0.06-0.094-0.161-0.153-0.261-0.202	c-1.012-0.507-2.203-0.421-3.329-0.534c-0.697-0.07-1.385-0.221-2.051-0.436c-0.317-0.103-0.985-0.352-1.141,0.066	c-0.13,0.348,0.098,1.097,0.114,1.474C15.097,20.534,15.04,21.678,14.878,22.807z"/><path fill="#373837" d="M26.663,21.918c0.01,0.157,0.032,0.334,0.158,0.429c0.067,0.051,0.152,0.068,0.234,0.085	c1.931,0.381,3.88,0.674,5.837,0.879c0.08,0.008,0.165,0.016,0.239-0.018c0.155-0.071,0.18-0.277,0.182-0.447	c0.021-1.671-0.04-3.342-0.182-5.007c-1.881,0.394-3.783,0.69-5.696,0.885c-0.776,0.079-0.852,0.215-0.846,0.948	C26.595,20.422,26.613,21.17,26.663,21.918z"/><path fill="#373837" d="M28.235,26.163c0.113,0.025,0.226,0.051,0.339,0.076c-1.631,0.677-2.912,1.993-4.471,2.823	c-0.074,0.039-0.151,0.078-0.235,0.079c-0.104,0.001-0.198-0.057-0.286-0.114c-1.453-0.934-2.907-1.867-4.36-2.801	c2.255-0.476,4.694,0.044,6.983-0.22C26.913,25.925,27.54,26.007,28.235,26.163z"/><path fill="none" stroke="#010101" stroke-linecap="round" stroke-linejoin="round" stroke-miterlimit="10" d="M14.878,22.807	c-0.013,0.091-0.021,0.2,0.05,0.259c0.046,0.038,0.11,0.041,0.17,0.043c1.771,0.042,3.547-0.112,5.284-0.458	c0.468-0.093,0.982-0.233,1.233-0.638c0.179-0.287,0.183-0.646,0.182-0.984c-0.002-0.54-0.004-1.079-0.005-1.619	c0-0.132-0.003-0.271-0.074-0.382c-0.06-0.094-0.161-0.153-0.261-0.202c-1.012-0.507-2.203-0.421-3.329-0.534	c-0.697-0.07-1.385-0.221-2.051-0.436c-0.317-0.103-0.985-0.352-1.141,0.066c-0.13,0.348,0.098,1.097,0.114,1.474	C15.097,20.534,15.04,21.678,14.878,22.807z"/><path fill="none" stroke="#010101" stroke-linecap="round" stroke-linejoin="round" stroke-miterlimit="10" d="M11.019,16.574	c1.071,1.04,2.141,2.08,3.212,3.12c0.445,0.432,0.261,0.496,0.833,0.737"/><path fill="none" stroke="#010101" stroke-linecap="round" stroke-linejoin="round" stroke-miterlimit="10" d="M26.663,21.918	c0.01,0.157,0.032,0.334,0.158,0.429c0.067,0.051,0.152,0.068,0.234,0.085c1.931,0.381,3.88,0.674,5.837,0.879	c0.08,0.008,0.165,0.016,0.239-0.018c0.155-0.071,0.18-0.277,0.182-0.447c0.021-1.671-0.04-3.342-0.182-5.007	c-1.881,0.394-3.783,0.69-5.696,0.885c-0.776,0.079-0.852,0.215-0.846,0.948C26.595,20.422,26.613,21.17,26.663,21.918z"/><line x1="21.966" x2="26.395" y1="20.36" y2="20.36" fill="none" stroke="#010101" stroke-linecap="round" stroke-linejoin="round" stroke-miterlimit="10"/><path fill="none" stroke="#010101" stroke-linecap="round" stroke-linejoin="round" stroke-miterlimit="10" d="M33.557,20.118	c1.089-1.023,2.14-2.086,3.152-3.186"/><path fill="none" stroke="#010101" stroke-linecap="round" stroke-linejoin="round" stroke-miterlimit="10" d="M28.235,26.163	c0.113,0.025,0.226,0.051,0.339,0.076c-1.631,0.677-2.912,1.993-4.471,2.823c-0.074,0.039-0.151,0.078-0.235,0.079	c-0.104,0.001-0.198-0.057-0.286-0.114c-1.453-0.934-2.907-1.867-4.36-2.801c2.255-0.476,4.694,0.044,6.983-0.22	C26.913,25.925,27.54,26.007,28.235,26.163z"/><path fill="none" stroke="#010101" stroke-linecap="round" stroke-linejoin="round" stroke-miterlimit="10" d="M20.148,33.773	c1.328,0.089,2.428-1.247,3.758-1.188c0.363,0.016,0.712,0.138,1.055,0.258c0.903,0.317,1.806,0.634,2.709,0.951"/><path fill="none" stroke="#010101" stroke-linecap="round" stroke-linejoin="round" stroke-miterlimit="10" d="M23.841,32.292	c0.037-0.546,0.073-1.091,0.11-1.637c0.028-0.414,0.052-0.849-0.125-1.224c-0.061-0.129-0.147-0.257-0.141-0.4	c0,0.042,0,0.084,0.001,0.126"/><path fill="none" stroke="#010101" stroke-linecap="round" stroke-linejoin="round" stroke-miterlimit="10" d="M19.101,31.247	c0-0.011,0-0.022,0-0.034"/><path fill="none" stroke="#010101" stroke-linecap="round" stroke-linejoin="round" stroke-miterlimit="10" d="M20.348,29.461	c0,0.011,0,0.022,0,0.034"/><path fill="none" stroke="#010101" stroke-linecap="round" stroke-linejoin="round" stroke-miterlimit="10" d="M21.731,31.246	c-0.049-0.011-0.093,0.058-0.062,0.098"/><path fill="none" stroke="#010101" stroke-linecap="round" stroke-linejoin="round" stroke-miterlimit="10" d="M25.775,31.146	c-0.011,0-0.022,0-0.034,0"/><path fill="none" stroke="#010101" stroke-linecap="round" stroke-linejoin="round" stroke-miterlimit="10" d="M26.955,29.192	c-0.036-0.005-0.071,0.03-0.066,0.066"/><path fill="none" stroke="#010101" stroke-linecap="round" stroke-linejoin="round" stroke-miterlimit="10" d="M27.804,31.311	c0.021,0.034,0.043,0.069,0.064,0.103"/></svg>